<?xml version="1.0" encoding="utf-8"?>
<!-- Generator: Adobe Illustrator 15.0.0, SVG Export Plug-In . SVG Version: 6.00 Build 0)  -->
<!DOCTYPE svg PUBLIC "-//W3C//DTD SVG 1.1//EN" "http://www.w3.org/Graphics/SVG/1.1/DTD/svg11.dtd">
<svg version="1.1" id="Capa_1" xmlns="http://www.w3.org/2000/svg" xmlns:xlink="http://www.w3.org/1999/xlink" x="0px" y="0px"
	 width="612px" height="612px" viewBox="0 0 612 612" enable-background="new 0 0 612 612" xml:space="preserve">
<g>
	<path fill="#5096C8" d="M306.768,346.814h0.131c4.615,0,9.177-1.34,12.867-3.777l1-0.644c0.219-0.142,0.446-0.271,0.676-0.424
		l11.658-9.645l278.259-229.624c-0.576-0.795-1.558-1.339-2.603-1.339H3.233c-0.751,0-1.448,0.272-2.003,0.729l291.125,239.954
		C296.024,345.083,301.259,346.814,306.768,346.814z M0,133.899v340.37l208.55-168.471L0,133.899z M403.668,306.941L612,474.356
		V135.031L403.668,306.941z M337.432,361.585c-8.306,6.814-19.168,10.57-30.576,10.57c-11.452,0-22.305-3.734-30.587-10.517
		l-47.765-39.394L0,506.806v0.587c0,1.754,1.502,3.244,3.276,3.244h605.491c1.741,0,3.232-1.49,3.232-3.255v-0.544L383.693,323.4
		L337.432,361.585z"/>
</g>
</svg>
